<?xml version="1.0" encoding="utf-8"?>
<!-- Generator: Adobe Illustrator 23.0.3, SVG Export Plug-In . SVG Version: 6.00 Build 0)  -->
<svg version="1.1" id="Layer_1" xmlns="http://www.w3.org/2000/svg" xmlns:xlink="http://www.w3.org/1999/xlink" x="0px" y="0px"
	 viewBox="0 0 215.6 268" style="enable-background:new 0 0 215.6 268;" xml:space="preserve">
<style type="text/css">
	.st0{fill:#ffb31a;}
</style>
<g>
	<path class="st0" d="M108.8,73.5c-16.1,0-29.2,13.1-29.2,29.2c0,16.1,13.1,29.2,29.2,29.2c16.1,0,29.2-13.1,29.2-29.2
		C138,86.6,124.9,73.5,108.8,73.5z"/>
	<path class="st0" d="M108.8,9.5C54.8,9.5,11,53.3,11,107.4c0,46.1,71.2,129.5,92.1,153.1c3.1,3.4,8.4,3.4,11.5,0
		c21-23.6,92.1-107,92.1-153.1C206.7,53.3,162.9,9.5,108.8,9.5z M108.8,151.1c-26.7,0-48.4-21.7-48.4-48.4
		c0-26.7,21.7-48.4,48.4-48.4c26.7,0,48.4,21.7,48.4,48.4C157.2,129.4,135.5,151.1,108.8,151.1z"/>
</g>
</svg>
